<svg width="30" height="30" viewBox="0 0 30 30" fill="none" xmlns="http://www.w3.org/2000/svg">
<path fill-rule="evenodd" clip-rule="evenodd" d="M15 29C22.732 29 29 22.732 29 15C29 7.26801 22.732 1 15 1C7.26801 1 1 7.26801 1 15C1 22.732 7.26801 29 15 29ZM15 30C23.2843 30 30 23.2843 30 15C30 6.71573 23.2843 0 15 0C6.71573 0 0 6.71573 0 15C0 23.2843 6.71573 30 15 30ZM15 11C16.3807 11 17.5 9.88071 17.5 8.5C17.5 7.11929 16.3807 6 15 6C13.6193 6 12.5 7.11929 12.5 8.5C12.5 9.88071 13.6193 11 15 11ZM15 12C16.933 12 18.5 10.433 18.5 8.5C18.5 6.567 16.933 5 15 5C13.067 5 11.5 6.567 11.5 8.5C11.5 10.433 13.067 12 15 12ZM10.1857 12.5358C9.9293 12.4332 9.63832 12.5579 9.53576 12.8143C9.4332 13.0707 9.55791 13.3617 9.8143 13.4642L14.5 15.3385V18.2929L9.64645 23.1464C9.45118 23.3417 9.45118 23.6583 9.64645 23.8536C9.84171 24.0488 10.1583 24.0488 10.3536 23.8536L15 19.2071L19.6464 23.8536C19.8417 24.0488 20.1583 24.0488 20.3536 23.8536C20.5488 23.6583 20.5488 23.3417 20.3536 23.1464L15.5 18.2929V15.3385L20.1857 13.4642C20.4421 13.3617 20.5668 13.0707 20.4642 12.8143C20.3617 12.5579 20.0707 12.4332 19.8143 12.5358L15 14.4615L10.1857 12.5358Z" fill="black"/>
</svg>
