<svg width="30" height="32" viewBox="0 0 25 27" fill="none" xmlns="http://www.w3.org/2000/svg">
<path fill-rule="evenodd" clip-rule="evenodd" d="M22.293 1.33306C22.2965 1.33342 22.2981 1.33358 22.2981 1.33347C22.4953 1.38667 22.6946 1.50313 22.8642 1.6542C23.0321 1.80382 23.1408 1.96045 23.1879 2.07038C23.188 2.07118 23.1883 2.07222 23.1886 2.07351C23.1905 2.08225 23.1952 2.10257 23.2019 2.13891C23.2136 2.20206 23.2277 2.28954 23.2437 2.40083C23.2757 2.62262 23.3133 2.92348 23.3543 3.28165C23.4361 3.99711 23.5296 4.92933 23.615 5.88988C23.7005 6.85053 23.7776 7.83615 23.8268 8.6588C23.8768 9.49643 23.8953 10.1265 23.8727 10.4012C23.8219 11.0206 23.7533 11.3219 23.6468 11.553C23.5367 11.7921 23.3724 11.9917 23.0261 12.4004C22.9015 12.5474 22.4822 13.0585 21.878 13.7949L21.8772 13.7959L21.8766 13.7967C20.8564 15.04 19.31 16.9249 17.7656 18.7841C16.5317 20.2695 15.2963 21.7421 14.3213 22.871C13.8335 23.4359 13.4136 23.9115 13.0929 24.2587C12.9322 24.4326 12.7999 24.5705 12.6984 24.6698C12.6192 24.7472 12.5757 24.7841 12.56 24.7974C12.5557 24.8011 12.5535 24.8029 12.5532 24.8034C12.5529 24.8038 12.5537 24.8034 12.5555 24.8023C11.9805 25.1378 11.2413 25.0381 10.6368 24.6859C10.5861 24.6563 10.4209 24.5358 10.1347 24.3104C9.8622 24.0959 9.50795 23.8091 9.09815 23.4722C8.27899 22.7989 7.24469 21.9313 6.21252 21.0548C5.18042 20.1784 4.15206 19.2946 3.34486 18.589C2.52183 17.8695 1.96329 17.3649 1.83812 17.2266C1.56858 16.9287 1.4108 16.6668 1.34222 16.395C1.27483 16.1278 1.28084 15.7999 1.42975 15.3482C1.42945 15.3491 1.42986 15.3483 1.4312 15.3456C1.43761 15.3329 1.46542 15.2777 1.53979 15.1646C1.62 15.0425 1.73282 14.8848 1.87672 14.6937C2.16396 14.3123 2.56042 13.8173 3.03376 13.2439C3.9796 12.098 5.21883 10.6551 6.47394 9.21339C7.99495 7.46625 9.54539 5.71403 10.6127 4.50783L10.6128 4.50769L10.613 4.50753C11.2998 3.7313 11.7865 3.18125 11.9364 3.00429C12.2907 2.5862 12.5595 2.37485 12.8216 2.24213C13.0926 2.10487 13.3904 2.03304 13.8558 1.94238C14.0118 1.91199 14.5789 1.84882 15.3921 1.77233C16.1897 1.69731 17.1907 1.61231 18.1871 1.53656C19.184 1.46077 20.1729 1.3945 20.9471 1.35667C21.3348 1.33773 21.6643 1.32615 21.9124 1.32383C22.0368 1.32267 22.1358 1.32389 22.209 1.32718C22.257 1.32934 22.2829 1.33202 22.293 1.33306ZM24.1231 1.71555C24.0085 1.42623 23.79 1.13982 23.5294 0.907622C23.2658 0.67269 22.9265 0.464046 22.5429 0.363842C22.4499 0.339549 22.3394 0.332029 22.2538 0.328186C22.1553 0.323757 22.0363 0.322626 21.903 0.323873C21.6358 0.326373 21.2913 0.338668 20.8983 0.357864C20.1113 0.396312 19.1124 0.463329 18.1113 0.539435C17.1097 0.615581 16.1026 0.701077 15.2984 0.776727C14.5098 0.850909 13.8814 0.918598 13.6646 0.960827C13.201 1.05113 12.7781 1.1432 12.3698 1.35002C11.9525 1.56137 11.5832 1.87427 11.1735 2.35784C11.0252 2.53289 10.5483 3.07171 9.87238 3.83553L9.87236 3.83555C8.81174 5.03404 7.26089 6.78647 5.71971 8.55677C4.46309 10.0002 3.21694 11.451 2.26254 12.6073C1.78577 13.1849 1.37839 13.6932 1.07792 14.0921C0.927979 14.2912 0.800975 14.468 0.704142 14.6153C0.616993 14.7479 0.524571 14.9 0.480038 15.0351C0.286595 15.6218 0.248382 16.1471 0.372593 16.6395C0.495623 17.1273 0.765265 17.5314 1.09668 17.8976C1.27198 18.0913 1.89082 18.6461 2.68672 19.3419C3.49848 20.0514 4.53062 20.9385 5.56525 21.8171C6.59981 22.6955 7.63846 23.5669 8.46315 24.2447C8.87526 24.5835 9.23565 24.8754 9.51612 25.0962C9.78279 25.3061 10.0089 25.4774 10.1333 25.5499C10.9298 26.014 12.0699 26.2434 13.0594 25.6661C13.1703 25.6014 13.2942 25.4859 13.3978 25.3845C13.5166 25.2683 13.6617 25.1166 13.8274 24.9373C14.1594 24.5779 14.5878 24.0924 15.0782 23.5246C16.0596 22.3883 17.2999 20.9097 18.5348 19.4231C20.094 17.546 21.64 15.6616 22.6548 14.4246L22.6553 14.424C23.2524 13.6962 23.6655 13.1927 23.789 13.0469L23.8178 13.0129L23.8178 13.0129C24.127 12.6481 24.382 12.3474 24.5551 11.9713C24.7373 11.5758 24.8162 11.1307 24.8694 10.483C24.8989 10.1241 24.874 9.41952 24.825 8.5991C24.775 7.76371 24.6971 6.76787 24.6111 5.80128C24.5251 4.83458 24.4308 3.89378 24.3478 3.16807C24.3064 2.80565 24.2675 2.49389 24.2335 2.25822C24.2166 2.14077 24.2003 2.03832 24.1851 1.95622C24.1729 1.89044 24.1537 1.79274 24.1231 1.71555ZM19.3008 8.37503C18.5803 9.25266 17.2847 9.38002 16.4071 8.6595C15.5295 7.93897 15.4021 6.64342 16.1226 5.76579C16.8432 4.88816 18.1387 4.7608 19.0163 5.48132C19.894 6.20184 20.0213 7.4974 19.3008 8.37503ZM20.0737 9.00956C19.0027 10.3141 17.0771 10.5034 15.7726 9.43239C14.4681 8.36142 14.2788 6.43574 15.3497 5.13125C16.4207 3.82677 18.3464 3.63746 19.6509 4.70843C20.9554 5.77939 21.1447 7.70508 20.0737 9.00956Z" fill="black"/>
</svg>
