<svg width="28" height="28" viewBox="0 0 26 26" fill="none" xmlns="http://www.w3.org/2000/svg">
<path fill-rule="evenodd" clip-rule="evenodd" d="M2 1H11V11H1V2C1 1.44772 1.44772 1 2 1ZM0 2C0 0.895431 0.895431 0 2 0H11H12V1V11V12H11H1H0V11V2ZM1 15H11V25H2C1.44772 25 1 24.5523 1 24V15ZM0 14H1H11H12V15V25V26H11H2C0.895431 26 0 25.1046 0 24V15V14ZM24 1H15V11H25V2C25 1.44772 24.5523 1 24 1ZM15 0H14V1V11V12H15H25H26V11V2C26 0.895431 25.1046 0 24 0H15ZM15 15H25V24C25 24.5523 24.5523 25 24 25H15V15ZM14 14H15H25H26V15V24C26 25.1046 25.1046 26 24 26H15H14V25V15V14Z" fill="black"/>
</svg>
