<svg width="33" height="33" viewBox="0 0 31 31" fill="none" xmlns="http://www.w3.org/2000/svg">
<path d="M6.91627 13.4364L1.61247 18.9925C0.819117 20.0393 0.783271 20.6156 1.88246 21.7154L3.88411 23.6262C5.53621 21.9976 6.7523 21.6234 8.34825 22.9573C9.9442 24.2911 9.68492 25.796 8.28775 27.8298L10.0892 29.5495C10.977 30.2922 11.9074 30.667 12.9218 29.7883L29.3068 12.6238C30.1701 11.6402 30.1215 10.5459 29.2262 9.70248L27.2245 7.79173C25.1144 9.53429 23.5718 9.61442 22.3655 8.27322C21.1591 6.93202 21.1824 5.07545 22.921 3.68362L20.9193 1.77287C19.863 0.773358 18.9925 0.931491 17.9974 1.82806L6.91627 13.4364ZM6.91627 13.4364L18.2202 24.0374" stroke="black"/>
</svg>
