<svg width="29" height="28" viewBox="0 0 29 28" fill="none" xmlns="http://www.w3.org/2000/svg">
<path fill-rule="evenodd" clip-rule="evenodd" d="M23.03 5.5C24.2726 5.5 25.28 4.49264 25.28 3.25C25.28 2.00736 24.2726 1 23.03 1C21.7874 1 20.78 2.00736 20.78 3.25C20.78 4.49264 21.7874 5.5 23.03 5.5ZM23.03 6.5C24.8249 6.5 26.28 5.04493 26.28 3.25C26.28 1.45507 24.8249 0 23.03 0C21.2351 0 19.78 1.45507 19.78 3.25C19.78 5.04493 21.2351 6.5 23.03 6.5ZM21.8931 8.0068C21.4364 8.11053 21.1482 8.24776 21.0199 8.36667C20.5907 8.76454 20.2248 9.17787 19.9193 9.73801C19.6574 10.2184 19.4309 10.8236 19.2574 11.6434C19.5411 11.7478 19.7982 11.8941 20.0243 12.0947C20.3709 12.4021 20.6105 12.8064 20.7776 13.2952C21.1024 14.2455 21.1843 15.6173 21.18 17.4991C21.1885 18.9495 21.1031 19.993 20.8468 20.8239C20.6056 21.6058 20.2212 22.1749 19.68 22.7126V26.4783C19.713 26.8055 19.9705 27 20.18 27H20.183H20.186H20.1892H20.1924H20.1958H20.1992H20.2027H20.2063H20.21H20.2138H20.2177H20.2216H20.2257H20.2298H20.234H20.2383H20.2427H20.2472H20.2518H20.2564H20.2611H20.2659H20.2708H20.2758H20.2809H20.286H20.2912H20.2965H20.3019H20.3074H20.3129H20.3186H20.3243H20.33H20.3359H20.3418H20.3479H20.354H20.3601H20.3664H20.3727H20.3791H20.3856H20.3921H20.3988H20.4055H20.4122H20.4191H20.426H20.433H20.4401H20.4472H20.4544H20.4617H20.4691H20.4765H20.484H20.4916H20.4992H20.5069H20.5147H20.5225H20.5304H20.5384H20.5464H20.5546H20.5627H20.571H20.5793H20.5877H20.5961H20.6046H20.6132H20.6218H20.6305H20.6393H20.6481H20.657H20.6659H20.6749H20.684H20.6931H20.7023H20.7116H20.7209H20.7302H20.7397H20.7491H20.7587H20.7683H20.778H20.7877H20.7974H20.8073H20.8172H20.8271H20.8371H20.8471H20.8572H20.8674H20.8776H20.8879H20.8982H20.9086H20.919H20.9295H20.94H20.9506H20.9612H20.9719H20.9826H20.9934H21.0042H21.0151H21.026H21.037H21.048H21.059H21.0702H21.0813H21.0925H21.1038H21.1151H21.1264H21.1378H21.1492H21.1607H21.1722H21.1837H21.1953H21.207H21.2187H21.2304H21.2422H21.254H21.2658H21.2777H21.2896H21.3016H21.3136H21.3256H21.3377H21.3498H21.362H21.3742H21.3864H21.3987H21.411H21.4233H21.4357H21.4481H21.4605H21.473H21.4855H21.498H21.5106H21.5232H21.5359H21.5485H21.5612H21.574H21.5867H21.5995H21.6123H21.6252H21.6381H21.651H21.6639H21.6769H21.6898H21.7029H21.7159H21.729H21.7421H21.7552H21.7683H21.7815H21.7947H21.8079H21.8212H21.8344H21.8477H21.861H21.8744H21.8877H21.9011H21.9145H21.9279H21.9413H21.9548H21.9683H21.9818H21.9953H22.0088H22.0224H22.0359H22.0495H22.0631H22.0767H22.0904H22.104H22.1177H22.1313H22.145H22.1587H22.1725H22.1862H22.1999H22.2137H22.2275H22.2413H22.2551H22.2689H22.2827H22.2965H22.3103H22.3242H22.338H22.3519H22.3658H22.3797H22.3935H22.4074H22.4213H22.4352H22.4492H22.4631H22.477H22.4909H22.5049H22.5188H22.5327H22.5467H22.5606H22.5746H22.5885H22.6025H22.6165H22.6304H22.6444H22.6583H22.6723H22.6862H22.7002H22.7142H22.7281H22.7421H22.756H22.77H22.7839H22.7979H22.8118H22.8257H22.8397H22.8536H22.8675H22.8814H22.8953H22.9092H22.9231H22.937H22.9509H22.9648H22.9786H22.9925H23.0063H23.0201H23.034H23.0478H23.0616H23.0754H23.0892H23.1029H23.1167H23.1304H23.1442H23.1579H23.1716H23.1853H23.199H23.2126H23.2263H23.2399H23.2535H23.2671H23.2807H23.2943H23.3078H23.3213H23.3349H23.3483H23.3618H23.3753H23.3887H23.4021H23.4155H23.4289H23.4422H23.4556H23.4689H23.4822H23.4954H23.5087H23.5219H23.5351H23.5482H23.5614H23.5745H23.5876H23.6007H23.6137H23.6267H23.6397H23.6526H23.6656H23.6785H23.6914H23.7042H23.717H23.7298H23.7426H23.7553H23.768H23.7806H23.7933H23.8059H23.8184H23.831H23.8435H23.856H23.8684H23.8808H23.8932H23.9055H23.9178H23.93H23.9423H23.9545H23.9666H23.9787H23.9908H24.0028H24.0148H24.0268H24.0387H24.0506H24.0624H24.0742H24.086H24.0977H24.1094H24.121H24.1326H24.1442H24.1557H24.1672H24.1786H24.19H24.2013H24.2126H24.2238H24.235H24.2462H24.2573H24.2683H24.2794H24.2903H24.3012H24.3121H24.3229H24.3337H24.3444H24.3551H24.3657H24.3763H24.3868H24.3973H24.4077H24.418H24.4283H24.4386H24.4488H24.459H24.4691H24.4791H24.4891H24.499H24.5089H24.5187H24.5285H24.5382H24.5479H24.5575H24.567H24.5765H24.5859H24.5953H24.6046H24.6138H24.623H24.6321H24.6412H24.6502H24.6591H24.668H24.6768H24.6855H24.6942H24.7029H24.7114H24.7199H24.7283H24.7367H24.745H24.7533H24.7614H24.7695H24.7776H24.7855H24.7934H24.8013H24.809H24.8167H24.8244H24.8319H24.8394H24.8468H24.8542H24.8614H24.8686H24.8758H24.8828H24.8898H24.8967H24.9036H24.9103H24.917H24.9237H24.9302H24.9367H24.9431H24.9494H24.9556H24.9618H24.9679H24.9739H24.9798H24.9857H24.9914H24.9971H25.0028H25.0083H25.0137H25.0191H25.0244H25.0296H25.0348H25.0398H25.0448H25.0497H25.0545H25.0592H25.0638H25.0684H25.0728H25.0772H25.0815H25.0857H25.0898H25.0938H25.0978H25.1017H25.1054H25.1091H25.1127H25.1162H25.1196H25.123H25.1262H25.1293H25.1324H25.1354H25.1382H25.141H25.1437H25.1463H25.1488H25.1512H25.1535H25.1558H25.1579H25.1599H25.1618H25.1637H25.1654H25.1671H25.1686H25.1701H25.1714H25.1727H25.1739H25.1749H25.175C25.4905 26.9934 25.5476 26.9442 25.557 26.9355C25.5714 26.9219 25.6402 26.8419 25.68 26.474V19.5V19.1348L26.0279 19.0237C26.7584 18.7904 27.0513 18.2283 27.18 17.4595V11.0323C27.0814 10.2786 26.9657 9.82751 26.7832 9.46883C26.6009 9.1104 26.3316 8.80438 25.8475 8.37346C25.6941 8.23684 25.3837 8.0959 24.9197 7.99432C24.4712 7.89617 23.9379 7.84725 23.3985 7.85007C22.8591 7.85288 22.331 7.90732 21.8931 8.0068ZM25.1335 7.01745C25.6524 7.13104 26.1659 7.31802 26.5125 7.62653C27.0285 8.08588 27.4077 8.49087 27.6745 9.01538C27.9387 9.53466 28.0723 10.1309 28.1759 10.9362L28.18 10.968V11V17.5V17.5395L28.1738 17.5785C28.038 18.4327 27.6823 19.3675 26.68 19.8401V26.5V26.5252L26.6775 26.5503C26.6345 26.9748 26.5392 27.3852 26.2411 27.6648C25.9376 27.9495 25.5363 27.9932 25.1896 27.9999L25.18 28.0001V27.5L25.18 28H25.1798H25.1795H25.1792H25.1787H25.1782H25.1775H25.1767H25.1759H25.1749H25.1739H25.1727H25.1714H25.1701H25.1686H25.1671H25.1654H25.1637H25.1618H25.1599H25.1579H25.1558H25.1535H25.1512H25.1488H25.1463H25.1437H25.141H25.1382H25.1354H25.1324H25.1293H25.1262H25.123H25.1196H25.1162H25.1127H25.1091H25.1054H25.1017H25.0978H25.0938H25.0898H25.0857H25.0815H25.0772H25.0728H25.0684H25.0638H25.0592H25.0545H25.0497H25.0448H25.0398H25.0348H25.0296H25.0244H25.0191H25.0137H25.0083H25.0028H24.9971H24.9914H24.9857H24.9798H24.9739H24.9679H24.9618H24.9556H24.9494H24.9431H24.9367H24.9302H24.9237H24.917H24.9103H24.9036H24.8967H24.8898H24.8828H24.8758H24.8686H24.8614H24.8542H24.8468H24.8394H24.8319H24.8244H24.8167H24.809H24.8013H24.7934H24.7855H24.7776H24.7695H24.7614H24.7533H24.745H24.7367H24.7283H24.7199H24.7114H24.7029H24.6942H24.6855H24.6768H24.668H24.6591H24.6502H24.6412H24.6321H24.623H24.6138H24.6046H24.5953H24.5859H24.5765H24.567H24.5575H24.5479H24.5382H24.5285H24.5187H24.5089H24.499H24.4891H24.4791H24.4691H24.459H24.4488H24.4386H24.4283H24.418H24.4077H24.3973H24.3868H24.3763H24.3657H24.3551H24.3444H24.3337H24.3229H24.3121H24.3012H24.2903H24.2794H24.2683H24.2573H24.2462H24.235H24.2238H24.2126H24.2013H24.19H24.1786H24.1672H24.1557H24.1442H24.1326H24.121H24.1094H24.0977H24.086H24.0742H24.0624H24.0506H24.0387H24.0268H24.0148H24.0028H23.9908H23.9787H23.9666H23.9545H23.9423H23.93H23.9178H23.9055H23.8932H23.8808H23.8684H23.856H23.8435H23.831H23.8184H23.8059H23.7933H23.7806H23.768H23.7553H23.7426H23.7298H23.717H23.7042H23.6914H23.6785H23.6656H23.6526H23.6397H23.6267H23.6137H23.6007H23.5876H23.5745H23.5614H23.5482H23.5351H23.5219H23.5087H23.4954H23.4822H23.4689H23.4556H23.4422H23.4289H23.4155H23.4021H23.3887H23.3753H23.3618H23.3483H23.3349H23.3213H23.3078H23.2943H23.2807H23.2671H23.2535H23.2399H23.2263H23.2126H23.199H23.1853H23.1716H23.1579H23.1442H23.1304H23.1167H23.1029H23.0892H23.0754H23.0616H23.0478H23.034H23.0201H23.0063H22.9925H22.9786H22.9648H22.9509H22.937H22.9231H22.9092H22.8953H22.8814H22.8675H22.8536H22.8397H22.8257H22.8118H22.7979H22.7839H22.77H22.756H22.7421H22.7281H22.7142H22.7002H22.6862H22.6723H22.6583H22.6444H22.6304H22.6165H22.6025H22.5885H22.5746H22.5606H22.5467H22.5327H22.5188H22.5049H22.4909H22.477H22.4631H22.4492H22.4352H22.4213H22.4074H22.3935H22.3797H22.3658H22.3519H22.338H22.3242H22.3103H22.2965H22.2827H22.2689H22.2551H22.2413H22.2275H22.2137H22.1999H22.1862H22.1725H22.1587H22.145H22.1313H22.1177H22.104H22.0904H22.0767H22.0631H22.0495H22.0359H22.0224H22.0088H21.9953H21.9818H21.9683H21.9548H21.9413H21.9279H21.9145H21.9011H21.8877H21.8744H21.861H21.8477H21.8344H21.8212H21.8079H21.7947H21.7815H21.7683H21.7552H21.7421H21.729H21.7159H21.7029H21.6898H21.6769H21.6639H21.651H21.6381H21.6252H21.6123H21.5995H21.5867H21.574H21.5612H21.5485H21.5359H21.5232H21.5106H21.498H21.4855H21.473H21.4605H21.4481H21.4357H21.4233H21.411H21.3987H21.3864H21.3742H21.362H21.3498H21.3377H21.3256H21.3136H21.3016H21.2896H21.2777H21.2658H21.254H21.2422H21.2304H21.2187H21.207H21.1953H21.1837H21.1722H21.1607H21.1492H21.1378H21.1264H21.1151H21.1038H21.0925H21.0813H21.0702H21.059H21.048H21.037H21.026H21.0151H21.0042H20.9934H20.9826H20.9719H20.9612H20.9506H20.94H20.9295H20.919H20.9086H20.8982H20.8879H20.8776H20.8674H20.8572H20.8471H20.8371H20.8271H20.8172H20.8073H20.7974H20.7877H20.778H20.7683H20.7587H20.7491H20.7397H20.7302H20.7209H20.7116H20.7023H20.6931H20.684H20.6749H20.6659H20.657H20.6481H20.6393H20.6305H20.6218H20.6132H20.6046H20.5961H20.5877H20.5793H20.571H20.5627H20.5546H20.5464H20.5384H20.5304H20.5225H20.5147H20.5069H20.4992H20.4916H20.484H20.4765H20.4691H20.4617H20.4544H20.4472H20.4401H20.433H20.426H20.4191H20.4122H20.4055H20.3988H20.3921H20.3856H20.3791H20.3727H20.3664H20.3601H20.354H20.3479H20.3418H20.3359H20.33H20.3243H20.3186H20.3129H20.3074H20.3019H20.2965H20.2912H20.286H20.2809H20.2758H20.2708H20.2659H20.2611H20.2564H20.2518H20.2472H20.2427H20.2383H20.234H20.2298H20.2257H20.2216H20.2177H20.2138H20.21H20.2063H20.2027H20.1992H20.1958H20.1924H20.1892H20.186H20.183H20.18C19.393 28 18.7432 27.3437 18.6815 26.5382L18.68 26.5191V26.5V22.5V22.2828L18.8387 22.1346C19.367 21.6412 19.6895 21.1831 19.8912 20.5292C20.1006 19.8503 20.1885 18.9332 20.18 17.503L20.18 17.4988C20.1844 15.5984 20.0945 14.3885 19.8314 13.6187C19.7045 13.2474 19.5459 13.007 19.3608 12.8429C19.1765 12.6793 18.9315 12.561 18.5808 12.4901L18.1045 12.3937L18.1873 11.9148C18.3826 10.785 18.6698 9.94069 19.0414 9.25928C19.4144 8.57509 19.8601 8.07833 20.3401 7.63332C20.6664 7.3308 21.168 7.14602 21.6716 7.03164C22.1939 6.91299 22.7964 6.85319 23.3933 6.85008C23.9903 6.84697 24.599 6.90045 25.1335 7.01745ZM11.1678 12.833C10.8535 13.0058 10.6691 13.1704 10.5929 13.282C10.1365 13.9501 9.92601 14.5355 9.72846 15.7308C10.5166 16.1831 11.1199 16.6896 11.5308 17.3396C11.9973 18.0775 12.18 18.9432 12.18 20C12.18 21.2542 12.1314 22.077 11.9674 22.7739C11.8096 23.4442 11.5508 23.9733 11.18 24.6318V25.9977C11.1845 26.4672 11.2771 26.6252 11.3647 26.7073C11.4786 26.8139 11.7037 26.9105 12.2221 27H12.2679H12.5081L13.305 27L15.18 27C15.6412 27 15.988 26.9263 16.2253 26.775C16.432 26.6433 16.6115 26.4172 16.68 25.9643V22V21.7249L16.9124 21.5776L16.9898 21.5287L16.9898 21.5286C17.2467 21.3661 17.3567 21.2965 17.4455 21.2132C17.5234 21.1402 17.5974 21.0429 17.7342 20.7735L17.7342 20.7734C17.7357 20.7697 17.7426 20.7526 17.753 20.7163C17.7655 20.6732 17.7793 20.6153 17.7938 20.5418C17.8228 20.3949 17.8511 20.2034 17.8766 19.9756C17.9273 19.5209 17.9643 18.9447 17.9771 18.3366C18.0031 17.0944 17.9254 15.8173 17.7057 15.1581C17.4787 14.4773 17.1794 14.0113 16.7627 13.6167C16.3383 13.215 15.7739 12.8694 14.9766 12.4577C14.1455 12.1488 13.1582 12.1814 12.292 12.402C11.8585 12.5124 11.4715 12.666 11.1678 12.833ZM12.18 28H12.1385L12.0976 27.9932C11.5502 27.9017 11.0386 27.7717 10.6814 27.4374C10.2951 27.0759 10.1851 26.5756 10.18 26.0045L10.18 26V24.5V24.3677L10.2455 24.2526C10.6412 23.5576 10.8612 23.1087 10.9939 22.5448C11.1295 21.9689 11.18 21.2458 11.18 20C11.18 19.0568 11.017 18.3983 10.6855 17.874C10.3518 17.3461 9.8115 16.8972 8.94719 16.4425L8.63278 16.2771L8.68555 15.9257C8.91008 14.4307 9.14561 13.6278 9.76713 12.718C9.9708 12.4198 10.3109 12.1629 10.686 11.9567C11.0717 11.7446 11.5391 11.5619 12.0452 11.433C13.0493 11.1772 14.2708 11.118 15.3582 11.5328L15.3842 11.5427L15.4089 11.5555C16.2353 11.981 16.9134 12.3823 17.4502 12.8905C17.9992 13.4103 18.3813 14.0227 18.6543 14.8419C18.9346 15.6827 19.0028 17.1183 18.9769 18.3575C18.9636 18.9901 18.9251 19.5968 18.8704 20.0866C18.8431 20.331 18.8111 20.5522 18.7748 20.7357C18.7415 20.9045 18.6961 21.0881 18.6258 21.2265C18.4707 21.5316 18.3339 21.7511 18.1294 21.9428C18.0006 22.0635 17.8494 22.167 17.68 22.2754V26V26.034L17.6754 26.0676C17.5776 26.7844 17.2607 27.3008 16.7628 27.6183C16.2908 27.9192 15.7188 28 15.18 28L13.305 28L12.5081 28H12.2679H12.2027H12.1858H12.1815H12.1804H12.1801H12.18ZM2.67387 16.7661C3.5485 16.2253 4.57457 16 5.6428 16C7.88491 16 9.44629 17.3293 10.1171 19.3419C10.2056 19.6073 10.2485 19.9439 10.2694 20.2699C10.2909 20.6048 10.2911 20.9653 10.2798 21.2966C10.2685 21.628 10.2452 21.9385 10.2178 22.1749C10.2043 22.2918 10.1887 22.399 10.1713 22.4848C10.1629 22.5262 10.1516 22.5752 10.1359 22.6224C10.1319 22.6344 10.1264 22.6498 10.1193 22.6672C10.1167 22.6764 10.1143 22.684 10.1124 22.6898C10.0982 22.7346 10.0804 22.776 10.0642 22.8104C10.0312 22.8799 9.98814 22.955 9.94084 23.0295C9.84519 23.1803 9.7128 23.3599 9.55671 23.5401C9.32879 23.8031 9.00955 24.115 8.64279 24.3212V26.4998V26.5115L8.64224 26.5232C8.63722 26.6302 8.62168 26.777 8.55391 26.9239C8.47914 27.086 8.35849 27.2117 8.20323 27.2997C7.9409 27.4483 7.57584 27.4867 7.15814 27.4996L7.15046 27.4998H7.14279H3.14298H3.14279L3.10773 27.4999C2.88608 27.5002 2.56404 27.5007 2.29719 27.4118C2.14222 27.3601 1.96736 27.2674 1.83401 27.0959C1.69732 26.9201 1.64279 26.7113 1.64279 26.4998V26.4998L1.6428 24.2407C1.4422 24.0742 1.26215 23.8987 1.10877 23.6804C0.905293 23.3908 0.770244 23.0574 0.65863 22.6247L0.656086 22.6148L0.656187 22.6148C0.428656 21.6519 0.470275 20.5153 0.64932 19.4194L0.656872 19.3732L0.672878 19.3291C1.09997 18.1546 1.79319 17.3106 2.67387 16.7661ZM1.62869 19.6274C1.46764 20.6384 1.44706 21.6088 1.62823 22.3799C1.72186 22.7415 1.81707 22.9491 1.927 23.1055C2.03945 23.2656 2.18918 23.4041 2.44834 23.6042L2.6428 23.7543L2.6428 24L2.64279 26.4714C2.67965 26.4801 2.73319 26.4882 2.80876 26.4932C2.90628 26.4997 3.01408 26.4999 3.14259 26.4998H3.14279H7.13498C7.33359 26.4935 7.47438 26.4809 7.57421 26.4642C7.60188 26.4596 7.6245 26.455 7.64279 26.4506V23.9998V23.6374L7.98724 23.5246C8.22964 23.4453 8.5332 23.1943 8.80093 22.8852C8.92712 22.7396 9.02934 22.5996 9.09643 22.4938C9.11282 22.468 9.12603 22.4459 9.13637 22.4277L9.12385 22.2522L9.20692 22.1943C9.21252 22.1566 9.21846 22.1117 9.22448 22.0597C9.2483 21.8543 9.26984 21.5712 9.2804 21.2624C9.29096 20.9535 9.29024 20.6272 9.27143 20.3339C9.25204 20.0317 9.21532 19.7987 9.16846 19.6581C8.6159 18.0005 7.4007 17 5.6428 17C4.71103 17 3.87914 17.1965 3.19979 17.6166C2.53646 18.0268 1.98622 18.6696 1.62869 19.6274ZM7.47999 12.35C7.47999 13.5926 6.47263 14.6 5.22999 14.6C3.98735 14.6 2.97999 13.5926 2.97999 12.35C2.97999 11.1074 3.98735 10.1 5.22999 10.1C6.47263 10.1 7.47999 11.1074 7.47999 12.35ZM8.47999 12.35C8.47999 14.1449 7.02491 15.6 5.22999 15.6C3.43506 15.6 1.97999 14.1449 1.97999 12.35C1.97999 10.5551 3.43506 9.1 5.22999 9.1C7.02491 9.1 8.47999 10.5551 8.47999 12.35ZM15.88 7.55C15.88 8.79264 14.8727 9.8 13.63 9.8C12.3874 9.8 11.38 8.79264 11.38 7.55C11.38 6.30736 12.3874 5.3 13.63 5.3C14.8727 5.3 15.88 6.30736 15.88 7.55ZM16.88 7.55C16.88 9.34492 15.4249 10.8 13.63 10.8C11.8351 10.8 10.38 9.34492 10.38 7.55C10.38 5.75507 11.8351 4.3 13.63 4.3C15.4249 4.3 16.88 5.75507 16.88 7.55Z" fill="black"/>
</svg>
