<svg width="28" height="28" viewBox="0 0 26 26" fill="none" xmlns="http://www.w3.org/2000/svg">
<path fill-rule="evenodd" clip-rule="evenodd" d="M5 1H7C9.20914 1 11 2.79086 11 5V7C11 9.20914 9.20914 11 7 11H5C2.79086 11 1 9.20914 1 7V5C1 2.79086 2.79086 1 5 1ZM0 5C0 2.23858 2.23858 0 5 0H7C9.76142 0 12 2.23858 12 5V7C12 9.76142 9.76142 12 7 12H5C2.23858 12 0 9.76142 0 7V5ZM5 15H7C9.20914 15 11 16.7909 11 19V21C11 23.2091 9.20914 25 7 25H5C2.79086 25 1 23.2091 1 21V19C1 16.7909 2.79086 15 5 15ZM0 19C0 16.2386 2.23858 14 5 14H7C9.76142 14 12 16.2386 12 19V21C12 23.7614 9.76142 26 7 26H5C2.23858 26 0 23.7614 0 21V19ZM21 1H19C16.7909 1 15 2.79086 15 5V7C15 9.20914 16.7909 11 19 11H21C23.2091 11 25 9.20914 25 7V5C25 2.79086 23.2091 1 21 1ZM19 0C16.2386 0 14 2.23858 14 5V7C14 9.76142 16.2386 12 19 12H21C23.7614 12 26 9.76142 26 7V5C26 2.23858 23.7614 0 21 0H19ZM19 15H21C23.2091 15 25 16.7909 25 19V21C25 23.2091 23.2091 25 21 25H19C16.7909 25 15 23.2091 15 21V19C15 16.7909 16.7909 15 19 15ZM14 19C14 16.2386 16.2386 14 19 14H21C23.7614 14 26 16.2386 26 19V21C26 23.7614 23.7614 26 21 26H19C16.2386 26 14 23.7614 14 21V19Z" fill="black"/>
</svg>
