<svg width="29" height="28" viewBox="0 0 29 28" fill="none" xmlns="http://www.w3.org/2000/svg">
<path fill-rule="evenodd" clip-rule="evenodd" d="M23.03 6.5C24.8249 6.5 26.28 5.04493 26.28 3.25C26.28 1.45507 24.8249 0 23.03 0C21.2351 0 19.78 1.45507 19.78 3.25C19.78 5.04493 21.2351 6.5 23.03 6.5ZM23.03 5.5C24.2727 5.5 25.28 4.49264 25.28 3.25C25.28 2.00736 24.2727 1 23.03 1C21.7874 1 20.78 2.00736 20.78 3.25C20.78 4.49264 21.7874 5.5 23.03 5.5Z" fill="black"/>
<path fill-rule="evenodd" clip-rule="evenodd" d="M25.1335 7.01745C25.6524 7.13104 26.1659 7.31802 26.5125 7.62653C27.0285 8.08588 27.4077 8.49087 27.6745 9.01538C27.9387 9.53466 28.0723 10.1309 28.1759 10.9362L28.18 10.968V17.5395L28.1738 17.5785C28.038 18.4327 27.6823 19.3675 26.68 19.8401V26.5252L26.6775 26.5503C26.6346 26.9748 26.5392 27.3852 26.2411 27.6648C25.9376 27.9495 25.5363 27.9932 25.1897 27.9999L25.18 28.0001L25.1787 28H20.18C19.393 28 18.7432 27.3437 18.6815 26.5382L18.68 26.5191V22.2828L18.8387 22.1346C19.367 21.6412 19.6895 21.1831 19.8912 20.5292C20.1007 19.8503 20.1885 18.9332 20.18 17.503L20.18 17.4988C20.1844 15.5984 20.0945 14.3885 19.8314 13.6187C19.7045 13.2474 19.5459 13.007 19.3608 12.8429C19.1765 12.6793 18.9315 12.561 18.5808 12.4901L18.1045 12.3937L18.1873 11.9148C18.3826 10.785 18.6698 9.94069 19.0414 9.25928C19.4145 8.57509 19.8601 8.07833 20.3401 7.63332C20.6664 7.3308 21.168 7.14602 21.6716 7.03164C22.1939 6.91299 22.7964 6.85319 23.3933 6.85008C23.9903 6.84697 24.599 6.90045 25.1335 7.01745ZM21.8931 8.0068C21.4364 8.11053 21.1482 8.24776 21.0199 8.36667C20.5908 8.76454 20.2248 9.17787 19.9194 9.73801C19.6574 10.2184 19.431 10.8236 19.2574 11.6434C19.5411 11.7478 19.7982 11.8941 20.0244 12.0947C20.3709 12.4021 20.6105 12.8064 20.7776 13.2952C21.1025 14.2455 21.1843 15.6173 21.18 17.4991C21.1885 18.9495 21.1031 19.993 20.8468 20.8239C20.6056 21.6058 20.2212 22.1749 19.68 22.7126V26.4783C19.713 26.8055 19.9705 27 20.18 27H25.1749C25.4904 26.9934 25.5476 26.9442 25.557 26.9355C25.5714 26.9219 25.6402 26.8419 25.68 26.474V19.1348L26.0279 19.0237C26.7584 18.7904 27.0514 18.2283 27.18 17.4595V11.0323C27.0815 10.2786 26.9657 9.82751 26.7833 9.46883C26.6009 9.1104 26.3316 8.80438 25.8476 8.37346C25.6941 8.23684 25.3837 8.0959 24.9197 7.99432C24.4712 7.89617 23.9379 7.84725 23.3985 7.85007C22.8592 7.85288 22.331 7.90732 21.8931 8.0068Z" fill="black"/>
<path fill-rule="evenodd" clip-rule="evenodd" d="M12.1385 28L12.0976 27.9932C11.5502 27.9017 11.0386 27.7717 10.6814 27.4374C10.2951 27.0759 10.1851 26.5756 10.18 26.0045L10.18 26V24.3677L10.2455 24.2526C10.6412 23.5576 10.8613 23.1087 10.994 22.5448C11.1295 21.9689 11.18 21.2458 11.18 20C11.18 19.0568 11.017 18.3983 10.6856 17.874C10.3519 17.3461 9.81151 16.8972 8.94721 16.4425L8.63279 16.2771L8.68556 15.9257C8.91009 14.4307 9.14562 13.6278 9.76715 12.718C9.97081 12.4198 10.3109 12.1629 10.686 11.9567C11.0718 11.7446 11.5391 11.5619 12.0452 11.433C13.0493 11.1772 14.2708 11.118 15.3582 11.5328L15.3842 11.5427L15.4089 11.5555C16.2353 11.981 16.9134 12.3823 17.4502 12.8905C17.9992 13.4103 18.3813 14.0227 18.6544 14.8419C18.9346 15.6827 19.0029 17.1183 18.9769 18.3575C18.9636 18.9901 18.9251 19.5968 18.8704 20.0866C18.8431 20.331 18.8111 20.5522 18.7748 20.7357C18.7415 20.9045 18.6961 21.0881 18.6258 21.2265C18.4708 21.5316 18.3339 21.7511 18.1294 21.9428C18.0007 22.0635 17.8494 22.167 17.68 22.2754V26.034L17.6754 26.0676C17.5776 26.7844 17.2607 27.3008 16.7629 27.6183C16.2908 27.9192 15.7188 28 15.18 28H12.1385ZM11.1678 12.833C10.8535 13.0058 10.6691 13.1704 10.5929 13.282C10.1365 13.9501 9.92602 14.5355 9.72847 15.7308C10.5166 16.1831 11.1199 16.6896 11.5308 17.3396C11.9973 18.0775 12.18 18.9432 12.18 20C12.18 21.2542 12.1314 22.077 11.9674 22.7739C11.8096 23.4442 11.5509 23.9733 11.18 24.6318V25.9977C11.1845 26.4672 11.2771 26.6252 11.3647 26.7073C11.4787 26.8139 11.7037 26.9105 12.2221 27H15.18C15.6412 27 15.988 26.9263 16.2253 26.775C16.432 26.6433 16.6116 26.4172 16.68 25.9643V21.7249L16.9898 21.5287C17.2467 21.3661 17.3567 21.2965 17.4455 21.2132C17.5234 21.1402 17.5974 21.0429 17.7343 20.7735C17.7358 20.7698 17.7426 20.7526 17.7531 20.7163C17.7655 20.6732 17.7793 20.6153 17.7938 20.5418C17.8229 20.3949 17.8511 20.2034 17.8766 19.9756C17.9274 19.5209 17.9643 18.9447 17.9771 18.3366C18.0031 17.0944 17.9254 15.8173 17.7057 15.1581C17.4788 14.4773 17.1794 14.0113 16.7627 13.6167C16.3383 13.215 15.7739 12.8694 14.9766 12.4577C14.1456 12.1488 13.1582 12.1814 12.292 12.402C11.8585 12.5124 11.4715 12.666 11.1678 12.833Z" fill="black"/>
<path fill-rule="evenodd" clip-rule="evenodd" d="M2.67388 16.7661C3.54852 16.2253 4.57458 16 5.64281 16C7.88492 16 9.4463 17.3293 10.1172 19.3419C10.2056 19.6073 10.2485 19.9439 10.2694 20.2699C10.2909 20.6048 10.2912 20.9653 10.2798 21.2966C10.2685 21.628 10.2453 21.9385 10.2178 22.1749C10.2043 22.2918 10.1888 22.399 10.1713 22.4848C10.1629 22.5262 10.1516 22.5752 10.1359 22.6224C10.1319 22.6344 10.1264 22.6498 10.1193 22.6672C10.1167 22.6764 10.1143 22.684 10.1125 22.6898C10.0982 22.7346 10.0804 22.776 10.0642 22.8104C10.0313 22.8799 9.98816 22.955 9.94085 23.0295C9.8452 23.1803 9.71281 23.3599 9.55673 23.5401C9.3288 23.8031 9.00956 24.115 8.6428 24.3212V26.5115L8.64225 26.5232C8.63723 26.6302 8.62169 26.777 8.55392 26.9239C8.47915 27.086 8.3585 27.2117 8.20324 27.2997C7.94091 27.4483 7.57585 27.4867 7.15815 27.4996L7.15048 27.4998H3.14299L3.10775 27.4999C2.88609 27.5002 2.56405 27.5007 2.2972 27.4118C2.14223 27.3601 1.96737 27.2674 1.83402 27.0959C1.69733 26.9201 1.64281 26.7113 1.6428 26.4998L1.64281 24.2407C1.44221 24.0742 1.26216 23.8987 1.10878 23.6804C0.905306 23.3908 0.770257 23.0574 0.658643 22.6247L0.656099 22.6148C0.428568 21.6519 0.470288 20.5153 0.649333 19.4194L0.656885 19.3732L0.672891 19.3291C1.09999 18.1546 1.7932 17.3106 2.67388 16.7661ZM1.6287 19.6274C1.46765 20.6384 1.44708 21.6088 1.62824 22.3799C1.72187 22.7415 1.81708 22.9491 1.92701 23.1055C2.03946 23.2656 2.18919 23.4041 2.44835 23.6042L2.64281 23.7543L2.6428 26.4714C2.67966 26.4801 2.7332 26.4882 2.80878 26.4932C2.90629 26.4997 3.01409 26.4999 3.14261 26.4998H7.135C7.3336 26.4935 7.4744 26.4809 7.57422 26.4642C7.60189 26.4596 7.62451 26.455 7.6428 26.4506V23.6374L7.98725 23.5246C8.22965 23.4453 8.53321 23.1943 8.80094 22.8852C8.92713 22.7396 9.02935 22.5996 9.09644 22.4938C9.11283 22.468 9.12604 22.4459 9.13638 22.4277L9.12386 22.2522L9.20693 22.1943C9.21253 22.1566 9.21847 22.1117 9.2245 22.0597C9.24832 21.8543 9.26985 21.5712 9.28041 21.2624C9.29097 20.9535 9.29025 20.6272 9.27144 20.3339C9.25206 20.0317 9.21533 19.7987 9.16847 19.6581C8.61592 18.0005 7.40071 17 5.64281 17C4.71105 17 3.87915 17.1965 3.1998 17.6166C2.53648 18.0268 1.98623 18.6696 1.6287 19.6274Z" fill="black"/>
<path fill-rule="evenodd" clip-rule="evenodd" d="M8.48 12.35C8.48 14.1449 7.02493 15.6 5.23 15.6C3.43508 15.6 1.98 14.1449 1.98 12.35C1.98 10.5551 3.43508 9.1 5.23 9.1C7.02493 9.1 8.48 10.5551 8.48 12.35ZM7.48 12.35C7.48 13.5926 6.47264 14.6 5.23 14.6C3.98736 14.6 2.98 13.5926 2.98 12.35C2.98 11.1074 3.98736 10.1 5.23 10.1C6.47264 10.1 7.48 11.1074 7.48 12.35Z" fill="black"/>
<path fill-rule="evenodd" clip-rule="evenodd" d="M16.88 7.55C16.88 9.34492 15.425 10.8 13.63 10.8C11.8351 10.8 10.38 9.34492 10.38 7.55C10.38 5.75507 11.8351 4.3 13.63 4.3C15.425 4.3 16.88 5.75507 16.88 7.55ZM15.88 7.55C15.88 8.79264 14.8727 9.8 13.63 9.8C12.3874 9.8 11.38 8.79264 11.38 7.55C11.38 6.30736 12.3874 5.3 13.63 5.3C14.8727 5.3 15.88 6.30736 15.88 7.55Z" fill="black"/>
</svg>
