<svg width="28" height="37" viewBox="0 0 28 37" fill="none" xmlns="http://www.w3.org/2000/svg">
<path d="M6.46873 30.6868C7.06998 33.0874 7.50072 34.729 7.61925 35.0192C8.02417 36.0109 9.16634 36.258 9.68681 36.2576C14.4927 35.1822 24.3523 32.9302 25.3439 32.5253C26.8931 31.8927 27.0377 30.7401 26.8574 29.9983C26.5693 28.8126 26.2334 27.4468 25.8681 25.9725M6.46873 30.6868C5.01594 24.8861 2.56763 14.6535 1.12262 8.34248C1.07634 7.89859 0.0979521 5.53781 2.53149 5.12247L6.12522 4.15952C8.42506 8.65832 14.3022 7.18417 14.2063 2.13253L17.5123 1.30321C18.8439 1.16456 19.7628 1.71502 20.1314 3.1842C20.4472 4.44306 23.6826 17.1508 25.8681 25.9725M6.46873 30.6868L25.8681 25.9725" stroke="black"/>
</svg>
