<svg width="504" height="588" viewBox="0 0 504 588" fill="none" xmlns="http://www.w3.org/2000/svg">
<path fill-rule="evenodd" clip-rule="evenodd" d="M0 294C0 236.011 47.0107 189 105 189C162.989 189 210 236.011 210 294C210 351.989 162.989 399 105 399C47.0107 399 0 351.989 0 294Z" fill="black"/>
<path fill-rule="evenodd" clip-rule="evenodd" d="M294 483C294 425.011 341.011 378 399 378C456.989 378 504 425.011 504 483C504 540.989 456.989 588 399 588C341.011 588 294 540.989 294 483Z" fill="black"/>
<path fill-rule="evenodd" clip-rule="evenodd" d="M294 105C294 47.0107 341.011 0 399 0C456.989 0 504 47.0107 504 105C504 162.989 456.989 210 399 210C341.011 210 294 162.989 294 105Z" fill="black"/>
<path fill-rule="evenodd" clip-rule="evenodd" d="M346.053 139.053C352.324 148.814 349.496 161.803 339.741 168.075L186.967 266.252C177.212 272.523 164.218 269.695 157.946 259.934C151.675 250.179 154.503 237.189 164.264 230.918L317.037 132.741C326.798 126.47 339.787 129.298 346.059 139.053L346.053 139.053Z" fill="black"/>
<path fill-rule="evenodd" clip-rule="evenodd" d="M157.947 328.053C164.217 318.298 177.212 315.47 186.968 321.741L339.741 419.918C349.497 426.189 352.325 439.178 346.054 448.934C339.783 458.695 326.794 461.523 317.033 455.252L164.259 357.075C154.499 350.804 151.671 337.815 157.941 328.053L157.947 328.053Z" fill="black"/>
</svg>
