<svg width="35" height="27" viewBox="0 0 35 27" fill="none" xmlns="http://www.w3.org/2000/svg">
<path fill-rule="evenodd" clip-rule="evenodd" d="M12.3 4.75C12.3 6.54493 10.8449 8 9.05 8C7.25508 8 5.8 6.54493 5.8 4.75C5.8 2.95507 7.25508 1.5 9.05 1.5C10.8449 1.5 12.3 2.95507 12.3 4.75ZM13.2928 5C13.1634 7.23084 11.3133 9 9.05 9C6.78672 9 4.93664 7.23084 4.80723 5H1C0.723858 5 0.5 4.77614 0.5 4.5C0.5 4.22386 0.723858 4 1 4H4.86597C5.2202 2.01049 6.9587 0.5 9.05 0.5C11.1413 0.5 12.8798 2.01049 13.234 4H34.5C34.7761 4 35 4.22386 35 4.5C35 4.77614 34.7761 5 34.5 5H13.2928ZM26.55 26C28.3449 26 29.8 24.5449 29.8 22.75C29.8 20.9551 28.3449 19.5 26.55 19.5C24.7551 19.5 23.3 20.9551 23.3 22.75C23.3 24.5449 24.7551 26 26.55 26ZM30.734 22C30.3798 20.0105 28.6413 18.5 26.55 18.5C24.4587 18.5 22.7202 20.0105 22.366 22H1C0.723858 22 0.5 22.2239 0.5 22.5C0.5 22.7761 0.723858 23 1 23H22.3072C22.4366 25.2308 24.2867 27 26.55 27C28.8133 27 30.6634 25.2308 30.7928 23H34.5C34.7761 23 35 22.7761 35 22.5C35 22.2239 34.7761 22 34.5 22H30.734ZM17.75 17C19.5449 17 21 15.5449 21 13.75C21 11.9551 19.5449 10.5 17.75 10.5C15.9551 10.5 14.5 11.9551 14.5 13.75C14.5 15.5449 15.9551 17 17.75 17ZM21.934 13C21.5798 11.0105 19.8413 9.5 17.75 9.5C15.6587 9.5 13.9202 11.0105 13.566 13H1C0.723858 13 0.5 13.2239 0.5 13.5C0.5 13.7761 0.723858 14 1 14H13.5072C13.6366 16.2308 15.4867 18 17.75 18C20.0133 18 21.8634 16.2308 21.9928 14H34.5C34.7761 14 35 13.7761 35 13.5C35 13.2239 34.7761 13 34.5 13H21.934Z" fill="black"/>
</svg>
