<svg width="32" height="33" viewBox="0 0 32 33" fill="none" xmlns="http://www.w3.org/2000/svg">
<path d="M8.32417 15.635C8.51551 15.8562 8.49137 16.1913 8.26944 16.383C8.04784 16.5746 7.71238 16.5505 7.52106 16.3289L3.40815 11.5699C0.786253 8.53767 1.04667 4.88127 4.07257 2.25458C5.52573 0.991014 7.236 0.359956 8.88828 0.475673C8.89128 0.475883 8.89361 0.476046 8.8956 0.476185C10.5417 0.59381 12.0879 1.43756 13.3667 2.91685L19.3168 9.80237C20.5997 11.2849 21.2131 12.9469 21.0903 14.61C20.9633 16.2608 20.0977 17.8613 18.6529 19.1161C17.964 19.7151 17.2219 20.1723 16.4478 20.4763C16.3722 20.5058 16.2932 20.517 16.2171 20.5116C16.0196 20.4978 15.8375 20.3728 15.7597 20.1762C15.6532 19.9031 15.7874 19.595 16.0598 19.4885C16.7216 19.2288 17.3597 18.8344 17.9571 18.3152C19.1899 17.2444 19.9271 15.8992 20.0323 14.5299C20.1339 13.156 19.609 11.7612 18.5144 10.4963L12.5643 3.61048C11.474 2.34957 10.1793 1.63203 8.82048 1.53452C8.81848 1.53438 8.81682 1.53427 8.81416 1.53408C7.44451 1.43816 6.00759 1.97842 4.76868 3.05517C2.74717 4.80956 1.53896 7.78576 4.21164 10.8754L8.32417 15.635Z" fill="black"/>
<path d="M23.6068 16.3801C23.4151 16.1589 23.4399 15.8241 23.6615 15.6321C23.8831 15.4405 24.2175 15.4649 24.4095 15.6869L28.526 20.4471C31.1457 23.4768 30.8859 27.134 27.8634 29.7646C26.4094 31.0257 24.6998 31.6565 23.0476 31.5408C23.0446 31.5406 23.0416 31.5404 23.0386 31.5402C21.3925 31.4215 19.8457 30.5774 18.5663 29.0977L12.6173 22.2143C11.3322 20.7259 10.7198 19.0637 10.8455 17.4068C10.9692 15.7557 11.8348 14.1553 13.2833 12.9004C13.9771 12.2981 14.7186 11.8401 15.4876 11.5414C15.7604 11.4352 16.0677 11.57 16.1742 11.8431C16.2804 12.1165 16.1452 12.4242 15.8721 12.5304C15.2178 12.7849 14.5807 13.1787 13.9787 13.7016C12.7432 14.7722 12.0065 16.1167 11.9042 17.4869C11.7999 18.8563 12.3241 20.2514 13.4204 21.521L19.3694 28.4035C20.4606 29.6655 21.7559 30.3844 23.115 30.4819C23.1174 30.4821 23.1193 30.4822 23.122 30.4824C24.492 30.5783 25.9285 30.0391 27.1677 28.9637C29.187 27.2064 30.3933 24.2288 27.7235 21.1417L23.6068 16.3801Z" fill="black"/>
</svg>
