<svg width="25" height="33" viewBox="0 0 25 33" fill="none" xmlns="http://www.w3.org/2000/svg">
<path fill-rule="evenodd" clip-rule="evenodd" d="M2 0.5C1.17157 0.5 0.5 1.17157 0.5 2V30.8626C0.5 32.1349 1.98451 32.8295 2.96126 32.0141L12.1796 24.3188C12.3651 24.1639 12.6349 24.1639 12.8204 24.3188L22.0387 32.0141C23.0155 32.8295 24.5 32.1349 24.5 30.8626V2C24.5 1.17157 23.8284 0.5 23 0.5H2ZM1.5 2C1.5 1.72386 1.72386 1.5 2 1.5H23C23.2761 1.5 23.5 1.72386 23.5 2V30.8626C23.5 31.2867 23.0052 31.5182 22.6796 31.2464L13.4613 23.5511C12.9046 23.0865 12.0954 23.0865 11.5387 23.5511L2.32042 31.2464C1.99483 31.5182 1.5 31.2867 1.5 30.8626V2ZM8.5 5H16.5V4H8.5V5Z" fill="black"/>
</svg>
