<svg width="34" height="34" viewBox="0 0 34 34" fill="none" xmlns="http://www.w3.org/2000/svg">
<path d="M13.858 9.12011L10.4229 12.7461C10.8047 16.7537 18.8197 22.8606 19.9648 23.4331C20.8808 23.8911 22.064 23.4331 22.064 23.4331C22.3741 23.309 23.1709 22.1354 24.5449 20.7613C25.919 19.3873 27.1531 20.1888 27.5984 20.7613C28.807 21.9064 31.4534 24.4636 32.3694 25.5323C33.2854 26.601 33.0055 27.7588 32.7511 28.2041C31.9241 29.1583 29.9648 31.2957 28.7434 32.2117C27.522 33.1277 24.6642 33.1378 23.5907 32.7842C7.3693 27.4407 2.21676 12.7461 1.26255 9.69264C0.499193 7.24991 1.58062 5.62141 2.21676 5.1125C3.04373 4.28552 5.00303 2.40257 6.2244 1.48654C7.44578 0.570508 8.0087 1.17149 8.32365 1.48654L13.858 7.02088C14.316 7.47889 14.168 8.80516 13.858 9.12011Z" stroke="black"/>
</svg>
